<svg xmlns="http://www.w3.org/2000/svg" xmlns:xlink="http://www.w3.org/1999/xlink" version="1.1" x="0px" y="0px" viewBox="0 0 100 125" style="enable-background:new 0 0 100 100;" xml:space="preserve"><style type="text/css">
	.st0{fill:none;stroke:#000000;stroke-width:2;stroke-linecap:round;stroke-linejoin:round;stroke-miterlimit:10;}
</style><path d="M89.247,17.681L67.69,14.533v-3.603c0-0.553-0.448-1-1-1H11.125c-0.552,0-1,0.447-1,1v73.666c0,0.553,0.448,1,1,1h38.899  l28.72,4.323c0.05,0.007,0.1,0.011,0.149,0.011c0.213,0,0.423-0.068,0.596-0.197c0.213-0.158,0.355-0.396,0.394-0.659l10.208-70.261  C90.171,18.268,89.793,17.76,89.247,17.681z M21.144,83.597V11.931h4.55v25.618c0,0.359,0.193,0.691,0.505,0.869  c0.153,0.087,0.324,0.131,0.495,0.131c0.176,0,0.353-0.047,0.51-0.14l0.957-0.567c0.985,7.224,7.171,12.726,14.59,12.726  c8.125,0,14.736-6.61,14.736-14.736c0-8.125-6.611-14.735-14.736-14.735c-1.989,0-3.956,0.427-5.773,1.201V11.931H65.69v71.666  H21.144z M35.467,38.409c0.31,0.184,0.694,0.186,1.005,0.009c0.312-0.178,0.505-0.51,0.505-0.869V24.488  c1.776-0.905,3.765-1.391,5.773-1.391c7.023,0,12.736,5.713,12.736,12.735S49.773,48.568,42.75,48.568  c-6.7,0-12.239-5.19-12.698-11.847l1.283-0.76L35.467,38.409z M34.977,35.794l-3.131-1.855c-0.314-0.186-0.705-0.186-1.02,0  l-3.132,1.855V11.931h7.283V35.794z M12.125,11.931h7.019v71.666h-7.019V11.931z M78.048,87.792l-14.583-2.195h3.225  c0.552,0,1-0.447,1-1V16.554l20.279,2.961L78.048,87.792z"/><path d="M53.76,66.097H31.762c-0.552,0-1,0.447-1,1v4.75c0,0.553,0.448,1,1,1H53.76c0.552,0,1-0.447,1-1v-4.75  C54.76,66.544,54.312,66.097,53.76,66.097z M52.76,70.847H32.762v-2.75H52.76V70.847z"/><text x="0" y="115" fill="#000000" font-size="5px" font-weight="bold" font-family="'Helvetica Neue', Helvetica, Arial-Unicode, Arial, Sans-serif">Created by Made by Made</text><text x="0" y="120" fill="#000000" font-size="5px" font-weight="bold" font-family="'Helvetica Neue', Helvetica, Arial-Unicode, Arial, Sans-serif">from the Noun Project</text></svg>