<svg xmlns="http://www.w3.org/2000/svg" xmlns:xlink="http://www.w3.org/1999/xlink" version="1.1" x="0px" y="0px" viewBox="0 0 100 125" style="enable-background:new 0 0 100 100;" xml:space="preserve"><style type="text/css">
	.st0{fill:none;stroke:#000000;stroke-width:2;stroke-linecap:round;stroke-linejoin:round;stroke-miterlimit:10;}
</style><path d="M10.999,89.93h78c0.553,0,1-0.447,1-1v-8.824c0-0.553-0.447-1-1-1h-3.27V24.063c0-0.553-0.447-1-1-1H73.397v-5.181  c0-0.553-0.447-1-1-1H60.333v-3.786c0-0.553-0.447-1-1-1H43.034V10.93c0-0.553-0.447-1-1-1H27.851c-0.553,0-1,0.447-1,1v12.134  H15.519c-0.553,0-1,0.447-1,1v55.042h-3.52c-0.553,0-1,0.447-1,1v8.824C9.999,89.482,10.446,89.93,10.999,89.93z M83.729,25.063  v54.042H73.397V25.063H83.729z M71.397,18.883v60.223H60.333V18.883H71.397z M58.333,14.097v65.009H43.034V14.097H58.333z   M41.034,11.93v67.176H28.851V11.93H41.034z M16.519,25.063h10.332v54.042H16.519V25.063z M11.999,81.105h76v6.824h-76V81.105z"/><path d="M81.012,71.412h-4.89c-0.553,0-1,0.447-1,1s0.447,1,1,1h4.89c0.553,0,1-0.447,1-1S81.564,71.412,81.012,71.412z"/><path d="M76.122,69.569h4.89c0.553,0,1-0.447,1-1s-0.447-1-1-1h-4.89c-0.553,0-1,0.447-1,1S75.569,69.569,76.122,69.569z"/><path d="M63.495,25.063h4.889c0.553,0,1-0.447,1-1s-0.447-1-1-1h-4.889c-0.553,0-1,0.447-1,1S62.942,25.063,63.495,25.063z"/><path d="M68.384,26.711h-4.889c-0.553,0-1,0.447-1,1s0.447,1,1,1h4.889c0.553,0,1-0.447,1-1S68.937,26.711,68.384,26.711z"/><path d="M24.126,71.412h-4.89c-0.553,0-1,0.447-1,1s0.447,1,1,1h4.89c0.553,0,1-0.447,1-1S24.679,71.412,24.126,71.412z"/><path d="M19.236,69.569h4.89c0.553,0,1-0.447,1-1s-0.447-1-1-1h-4.89c-0.553,0-1,0.447-1,1S18.684,69.569,19.236,69.569z"/><path d="M31.807,34.097h6.271c0.553,0,1-0.447,1-1s-0.447-1-1-1h-6.271c-0.553,0-1,0.447-1,1S31.254,34.097,31.807,34.097z"/><path d="M31.807,30.638h6.271c0.553,0,1-0.447,1-1s-0.447-1-1-1h-6.271c-0.553,0-1,0.447-1,1S31.254,30.638,31.807,30.638z"/><path d="M55.209,32.097h-8.833c-0.553,0-1,0.447-1,1s0.447,1,1,1h8.833c0.553,0,1-0.447,1-1S55.762,32.097,55.209,32.097z"/><path d="M50.793,29.48c2.986,0,5.416-2.43,5.416-5.417c0-2.986-2.43-5.416-5.416-5.416c-2.987,0-5.417,2.43-5.417,5.416  C45.376,27.051,47.806,29.48,50.793,29.48z M50.793,20.647c1.884,0,3.416,1.532,3.416,3.416s-1.532,3.417-3.416,3.417  s-3.417-1.533-3.417-3.417S48.909,20.647,50.793,20.647z"/><path d="M31.807,25.063h6.271c0.553,0,1-0.447,1-1v-8.467c0-0.553-0.447-1-1-1h-6.271c-0.553,0-1,0.447-1,1v8.467  C30.807,24.616,31.254,25.063,31.807,25.063z M32.807,16.597h4.271v6.467h-4.271V16.597z"/><text x="0" y="115" fill="#000000" font-size="5px" font-weight="bold" font-family="'Helvetica Neue', Helvetica, Arial-Unicode, Arial, Sans-serif">Created by Made by Made</text><text x="0" y="120" fill="#000000" font-size="5px" font-weight="bold" font-family="'Helvetica Neue', Helvetica, Arial-Unicode, Arial, Sans-serif">from the Noun Project</text></svg>