<svg xmlns="http://www.w3.org/2000/svg" xmlns:xlink="http://www.w3.org/1999/xlink" version="1.1" x="0px" y="0px" viewBox="0 0 100 125" style="enable-background:new 0 0 100 100;" xml:space="preserve"><style type="text/css">
	.st0{fill:none;stroke:#000000;stroke-width:2;stroke-linecap:round;stroke-linejoin:round;stroke-miterlimit:10;}
</style><path d="M89.125,15.698h-3.814v-0.654c0-0.385-0.221-0.735-0.567-0.901c-19.245-9.23-31.584-0.668-34.61,1.858  c-1.259-1.076-4.17-3.24-8.617-4.679c-5.484-1.773-14.449-2.727-26.01,2.82c-0.347,0.166-0.567,0.517-0.567,0.901v0.654h-3.814  c-0.552,0-1,0.447-1,1v69.25c0,0.553,0.448,1,1,1h33.529c1.082,1.914,3.114,3.119,5.346,3.119s4.264-1.205,5.346-3.119h33.779  c0.552,0,1-0.447,1-1v-69.25C90.125,16.146,89.677,15.698,89.125,15.698z M83.311,15.678v62.53  c-16.791-7.425-28.079-1.273-32.182,1.742c0.031-19.003,0.083-56.994,0.002-62.174C53.033,16.069,64.495,6.945,83.311,15.678z   M49.138,17.786c0.066,4.077,0.025,40.8-0.01,62.145c-1.536-1.149-4.081-2.741-7.612-3.883c-2.373-0.768-5.397-1.381-9.001-1.381  c-4.378,0-9.614,0.905-15.576,3.541V16.701c0-0.001,0-0.002,0-0.002s0-0.002,0-0.002v-1.018  C35.992,6.824,47.26,16.049,49.138,17.786z M88.125,84.948H54.727c-0.4,0-0.761,0.238-0.919,0.605  c-0.655,1.527-2.149,2.514-3.808,2.514s-3.153-0.986-3.808-2.514c-0.158-0.367-0.519-0.605-0.919-0.605H12.125v-67.25h2.814V79.77  c0,0.344,0.176,0.663,0.467,0.847c0.291,0.182,0.655,0.204,0.965,0.055c20.852-10,32.549,1.603,33.037,2.1  c0.001,0.001,0.003,0.001,0.004,0.003c0.181,0.184,0.432,0.3,0.711,0.3c0.001,0,0.001,0,0.002,0c0.279,0,0.53-0.115,0.711-0.299  c0.001-0.001,0.004-0.002,0.005-0.003c0.488-0.497,12.186-12.102,33.037-2.1c0.31,0.149,0.674,0.127,0.965-0.055  c0.291-0.184,0.467-0.503,0.467-0.847V17.698h2.814V84.948z"/><path d="M32.346,39.84c5.397,0,9.788-4.391,9.788-9.788s-4.391-9.788-9.788-9.788s-9.788,4.391-9.788,9.788  S26.949,39.84,32.346,39.84z M32.346,22.264c4.294,0,7.788,3.494,7.788,7.788s-3.494,7.788-7.788,7.788s-7.788-3.494-7.788-7.788  S28.052,22.264,32.346,22.264z"/><path d="M67.542,39.84c5.397,0,9.788-4.391,9.788-9.788s-4.391-9.788-9.788-9.788s-9.788,4.391-9.788,9.788  S62.145,39.84,67.542,39.84z M67.542,22.264c4.294,0,7.788,3.494,7.788,7.788s-3.494,7.788-7.788,7.788s-7.788-3.494-7.788-7.788  S63.248,22.264,67.542,22.264z"/><path d="M21.898,50.753c13.597-5.945,21.214,0.91,21.529,1.202c0.193,0.182,0.439,0.271,0.685,0.271  c0.266,0,0.532-0.105,0.729-0.315c0.378-0.402,0.359-1.035-0.043-1.413c-0.355-0.333-8.841-8.074-23.701-1.577  c-0.506,0.221-0.737,0.811-0.515,1.316C20.803,50.744,21.391,50.976,21.898,50.753z"/><path d="M21.898,58.753c13.597-5.945,21.214,0.91,21.529,1.202c0.193,0.182,0.439,0.271,0.685,0.271  c0.266,0,0.532-0.105,0.729-0.315c0.378-0.402,0.359-1.035-0.043-1.413c-0.355-0.333-8.841-8.074-23.701-1.577  c-0.506,0.221-0.737,0.811-0.515,1.316C20.803,58.743,21.391,58.976,21.898,58.753z"/><path d="M21.898,66.753c13.597-5.944,21.214,0.91,21.529,1.202c0.193,0.182,0.439,0.271,0.685,0.271  c0.266,0,0.532-0.105,0.729-0.315c0.378-0.402,0.359-1.035-0.043-1.413c-0.355-0.333-8.841-8.074-23.701-1.577  c-0.506,0.221-0.737,0.811-0.515,1.316C20.803,66.744,21.391,66.978,21.898,66.753z"/><path d="M56.234,52.227c0.246,0,0.492-0.09,0.685-0.271c0.077-0.072,7.867-7.178,21.53-1.202c0.509,0.223,1.096-0.009,1.317-0.516  c0.222-0.506-0.009-1.096-0.515-1.316c-14.86-6.5-23.347,1.243-23.701,1.577c-0.403,0.378-0.422,1.011-0.044,1.413  C55.703,52.121,55.968,52.227,56.234,52.227z"/><path d="M56.234,60.227c0.246,0,0.492-0.09,0.685-0.271c0.077-0.072,7.867-7.178,21.53-1.202c0.509,0.223,1.096-0.01,1.317-0.516  c0.222-0.506-0.009-1.096-0.515-1.316c-14.86-6.5-23.347,1.244-23.701,1.577c-0.403,0.378-0.422,1.011-0.044,1.413  C55.703,60.121,55.968,60.227,56.234,60.227z"/><path d="M56.234,68.227c0.246,0,0.492-0.09,0.685-0.271c0.077-0.072,7.867-7.177,21.53-1.202c0.509,0.225,1.096-0.009,1.317-0.516  c0.222-0.506-0.009-1.096-0.515-1.316c-14.86-6.5-23.347,1.244-23.701,1.577c-0.403,0.378-0.422,1.011-0.044,1.413  C55.703,68.121,55.968,68.227,56.234,68.227z"/><text x="0" y="115" fill="#000000" font-size="5px" font-weight="bold" font-family="'Helvetica Neue', Helvetica, Arial-Unicode, Arial, Sans-serif">Created by Made by Made</text><text x="0" y="120" fill="#000000" font-size="5px" font-weight="bold" font-family="'Helvetica Neue', Helvetica, Arial-Unicode, Arial, Sans-serif">from the Noun Project</text></svg>