<svg xmlns="http://www.w3.org/2000/svg" xmlns:xlink="http://www.w3.org/1999/xlink" version="1.1" x="0px" y="0px" viewBox="0 0 100 125" style="enable-background:new 0 0 100 100;" xml:space="preserve"><path d="M11,12c0.4545898,0,0.890625,0.0410156,1.2958984,0.1225586c0.0664062,0.0131836,0.1328125,0.0195312,0.1977539,0.0195312  c0.4667969,0,0.8842773-0.328125,0.9794922-0.8032227c0.1083984-0.5415039-0.2421875-1.0683594-0.7836914-1.1772461  C12.1547852,10.0541992,11.5864258,10,11,10c-0.5522461,0-1,0.4477539-1,1S10.4477539,12,11,12z"/><path d="M35.987793,10.0551758c-1.2001953,0.1337891-2.2724609,0.5131836-3.277832,1.1591797  c-0.4648438,0.2983398-0.5991211,0.9169922-0.3007812,1.3818359c0.190918,0.2973633,0.5131836,0.4594727,0.8422852,0.4594727  c0.1850586,0,0.3720703-0.0512695,0.5395508-0.1586914c0.7407227-0.4755859,1.5317383-0.7553711,2.418457-0.8544922  c0.5493164-0.0610352,0.9443359-0.5556641,0.8828125-1.1044922C37.0307617,10.3886719,36.5341797,9.9892578,35.987793,10.0551758z"/><path d="M62.7456055,10.9414062c-0.0512695,0.5498047,0.3530273,1.0371094,0.902832,1.0883789  c0.8974609,0.0834961,1.6953125,0.3461914,2.4389648,0.8022461c0.1630859,0.1000977,0.34375,0.1474609,0.5219727,0.1474609  c0.3364258,0,0.6645508-0.1694336,0.8535156-0.4770508c0.2885742-0.4707031,0.1411133-1.0864258-0.3295898-1.3754883  c-1.0107422-0.6196289-2.090332-0.9760742-3.2993164-1.0883789C63.2768555,9.9868164,62.796875,10.3920898,62.7456055,10.9414062z"/><path d="M53.9428711,15.7983398c-0.7421875,0.6269531-1.465332,1.0224609-2.2768555,1.2451172  c-0.5327148,0.1459961-0.8461914,0.6962891-0.7001953,1.2285156c0.121582,0.4443359,0.5244141,0.7363281,0.9638672,0.7363281  c0.0874023,0,0.1762695-0.0117188,0.2646484-0.0361328c1.0869141-0.2978516,2.0810547-0.8364258,3.0395508-1.6464844  c0.421875-0.3564453,0.4746094-0.9873047,0.1181641-1.4091797C54.9951172,15.4946289,54.3652344,15.4418945,53.9428711,15.7983398z"/><path d="M74.5341797,18.1879883c-0.0302734,0.5512695,0.3916016,1.0229492,0.9433594,1.0537109  c0.1679688,0.0092773,0.3398438,0.0141602,0.5166016,0.0141602c1.0537109,0,2.0009766-0.1665039,2.8955078-0.5097656  c0.515625-0.1977539,0.7734375-0.7758789,0.5756836-1.2915039c-0.1977539-0.5161133-0.7783203-0.7744141-1.2915039-0.5756836  c-0.7763672,0.296875-1.6894531,0.4169922-2.5859375,0.3657227C75.0458984,17.2138672,74.5654297,17.6362305,74.5341797,18.1879883z  "/><path d="M44.5297852,15.8149414c-0.3623047,0.4169922-0.3178711,1.0483398,0.0991211,1.4106445  c0.953125,0.828125,1.9345703,1.3847656,3.0009766,1.7021484c0.0952148,0.0283203,0.190918,0.0419922,0.2856445,0.0419922  c0.4306641,0,0.8286133-0.28125,0.9580078-0.715332c0.1577148-0.5292969-0.144043-1.0859375-0.6733398-1.2436523  c-0.7983398-0.2373047-1.5161133-0.6489258-2.2597656-1.2949219C45.5229492,15.3525391,44.8911133,15.3984375,44.5297852,15.8149414  z"/><path d="M24.2700195,17.2504883c-0.9018555,0.0351562-1.8007812-0.1010742-2.5708008-0.4179688  c-0.512207-0.2109375-1.0957031,0.0341797-1.3051758,0.5444336c-0.2099609,0.5112305,0.0336914,1.0952148,0.5444336,1.3051758  c0.9394531,0.3862305,1.9384766,0.5737305,3.0546875,0.5737305c0.1196289,0,0.2373047-0.0024414,0.3530273-0.0063477  c0.5517578-0.0209961,0.9819336-0.4853516,0.9614258-1.0375977C25.2866211,17.6606445,24.8432617,17.2358398,24.2700195,17.2504883z  "/><path d="M84.5820312,12.4858398c-0.3818359-0.3989258-1.0151367-0.409668-1.4135742-0.027832  c-0.5039062,0.484375-0.9682617,1.0019531-1.4169922,1.5029297c-0.2329102,0.2597656-0.465332,0.519043-0.7026367,0.7729492  c-0.3769531,0.4033203-0.355957,1.0361328,0.0473633,1.4135742c0.1928711,0.1801758,0.4379883,0.2695312,0.6831055,0.2695312  c0.2670898,0,0.5336914-0.1064453,0.7304688-0.3168945c0.2470703-0.2641602,0.4892578-0.5341797,0.730957-0.8041992  c0.4438477-0.4956055,0.8632812-0.9633789,1.3134766-1.3964844C84.9526367,13.5170898,84.9648438,12.8837891,84.5820312,12.4858398z  "/><path d="M60.6816406,11.2783203c-0.2539062-0.4902344-0.8579102-0.6821289-1.3481445-0.4262695  c-1.1445312,0.5942383-2.0146484,1.4238281-2.6450195,2.0795898c-0.3828125,0.3984375-0.3696289,1.03125,0.0283203,1.4140625  c0.1938477,0.1860352,0.4433594,0.2788086,0.6928711,0.2788086c0.2626953,0,0.5249023-0.1030273,0.7211914-0.3071289  c0.5239258-0.5454102,1.2387695-1.2304688,2.1245117-1.690918C60.7456055,12.3720703,60.9365234,11.7685547,60.6816406,11.2783203z"/><path d="M72.3764648,16.0683594c-0.7167969-0.5405273-1.3237305-1.1972656-2.0429688-1.9990234  c-0.3701172-0.4111328-1.0014648-0.4453125-1.4121094-0.0771484c-0.4111328,0.3686523-0.4458008,1.0009766-0.0771484,1.4121094  c0.765625,0.8535156,1.46875,1.612793,2.3271484,2.2607422c0.1806641,0.1357422,0.3920898,0.2016602,0.6015625,0.2016602  c0.3032227,0,0.6025391-0.137207,0.7993164-0.3974609C72.9047852,17.0283203,72.8168945,16.4013672,72.3764648,16.0683594z"/><path d="M29.5537109,14.1757812c-0.6538086,0.7280273-1.3022461,1.4262695-2.0473633,1.9677734  c-0.4467773,0.3251953-0.5458984,0.9501953-0.2211914,1.3969727c0.1958008,0.2695312,0.5009766,0.4121094,0.8100586,0.4121094  c0.2036133,0,0.409668-0.0620117,0.5869141-0.190918c0.9033203-0.6567383,1.6318359-1.4389648,2.3598633-2.25  c0.3691406-0.4106445,0.3349609-1.0429688-0.0761719-1.4121094C30.5556641,13.7314453,29.9233398,13.7646484,29.5537109,14.1757812z  "/><path d="M16.7563477,15.2998047c0.2045898,0.2290039,0.409668,0.4575195,0.6171875,0.6826172  c0.1972656,0.2133789,0.4658203,0.3217773,0.7348633,0.3217773c0.2426758,0,0.4858398-0.0878906,0.6782227-0.2651367  c0.4057617-0.3745117,0.4311523-1.0073242,0.0566406-1.4130859c-0.2011719-0.2177734-0.3989258-0.4389648-0.5966797-0.6601562  c-0.4858398-0.5424805-0.9882812-1.1035156-1.5410156-1.6225586c-0.4023438-0.3764648-1.034668-0.3579102-1.4135742,0.0444336  c-0.3779297,0.402832-0.3579102,1.0356445,0.0444336,1.4135742C15.8261719,14.2607422,16.277832,14.765625,16.7563477,15.2998047z"/><path d="M39.1625977,11.2353516c-0.2436523,0.4956055-0.0395508,1.0947266,0.4560547,1.3388672  c0.7055664,0.347168,1.3647461,0.8549805,2.1367188,1.6474609c0.1962891,0.2011719,0.4560547,0.3022461,0.7163086,0.3022461  c0.2514648,0,0.503418-0.0942383,0.6977539-0.2836914c0.3955078-0.3857422,0.4038086-1.0185547,0.0185547-1.4140625  c-0.9384766-0.9633789-1.7670898-1.5942383-2.6865234-2.046875C40.0048828,10.5356445,39.40625,10.7402344,39.1625977,11.2353516z"/><path d="M89,10c-0.5878906,0-1.15625,0.0541992-1.6894531,0.1611328c-0.5415039,0.1088867-0.8920898,0.6357422-0.7836914,1.1772461  c0.0952148,0.4750977,0.5126953,0.8032227,0.9794922,0.8032227c0.0649414,0,0.1313477-0.0063477,0.1977539-0.0195312  C88.1079102,12.0410156,88.5439453,12,89,12c0.5522461,0,1-0.4477539,1-1S89.5522461,10,89,10z"/><path d="M11,47.3720703c0.4545898,0,0.890625,0.0410156,1.2958984,0.1225586  c0.0664062,0.0131836,0.1328125,0.0195312,0.1977539,0.0195312c0.4667969,0,0.8842773-0.328125,0.9794922-0.8032227  c0.1083984-0.5415039-0.2421875-1.0683594-0.7836914-1.1772461C12.1547852,45.4262695,11.5864258,45.3720703,11,45.3720703  c-0.5522461,0-1,0.4477539-1,1S10.4477539,47.3720703,11,47.3720703z"/><path d="M60.6816406,46.6503906c-0.2539062-0.4897461-0.8579102-0.6816406-1.3481445-0.4262695  c-1.1445312,0.5942383-2.0146484,1.4238281-2.6450195,2.0795898c-0.3828125,0.3984375-0.3696289,1.03125,0.0283203,1.4140625  c0.1938477,0.1860352,0.4433594,0.2788086,0.6928711,0.2788086c0.2626953,0,0.5249023-0.1030273,0.7211914-0.3071289  c0.5239258-0.5454102,1.2387695-1.2304688,2.1245117-1.690918C60.7456055,47.7441406,60.9365234,47.140625,60.6816406,46.6503906z"/><path d="M72.3764648,51.4404297c-0.7167969-0.5405273-1.3237305-1.1972656-2.0429688-1.9990234  c-0.3701172-0.4116211-1.0014648-0.4458008-1.4121094-0.0771484c-0.4111328,0.3686523-0.4458008,1.0009766-0.0771484,1.4121094  c0.765625,0.8535156,1.46875,1.612793,2.3271484,2.2607422c0.1806641,0.1357422,0.3920898,0.2016602,0.6015625,0.2016602  c0.3032227,0,0.6025391-0.137207,0.7993164-0.3974609C72.9047852,52.4003906,72.8168945,51.7734375,72.3764648,51.4404297z"/><path d="M63.6484375,47.4018555c0.8974609,0.0834961,1.6953125,0.3461914,2.4389648,0.8022461  c0.1630859,0.1000977,0.34375,0.1474609,0.5219727,0.1474609c0.3364258,0,0.6645508-0.1694336,0.8535156-0.4770508  c0.2885742-0.4707031,0.1411133-1.0864258-0.3295898-1.3754883c-1.0107422-0.6196289-2.090332-0.9760742-3.2993164-1.0883789  c-0.5571289-0.0541992-1.0371094,0.3535156-1.0883789,0.902832C62.6943359,46.8632812,63.0986328,47.3505859,63.6484375,47.4018555z  "/><path d="M28.6821289,53.1337891c0.9033203-0.6567383,1.6318359-1.4389648,2.3598633-2.25  c0.3691406-0.4106445,0.3349609-1.0429688-0.0761719-1.4121094c-0.4101562-0.3686523-1.0424805-0.3344727-1.4121094,0.0761719  c-0.6538086,0.7280273-1.3022461,1.4262695-2.0473633,1.9677734c-0.4467773,0.3251953-0.5458984,0.9501953-0.2211914,1.3969727  c0.1958008,0.2695312,0.5009766,0.4121094,0.8100586,0.4121094C28.2988281,53.324707,28.5048828,53.2626953,28.6821289,53.1337891z"/><path d="M75.4775391,54.6137695c0.1679688,0.0092773,0.3398438,0.0141602,0.5166016,0.0141602  c1.0537109,0,2.0009766-0.1665039,2.8955078-0.5097656c0.515625-0.1977539,0.7734375-0.7758789,0.5756836-1.2915039  c-0.1977539-0.5161133-0.7783203-0.7744141-1.2915039-0.5756836c-0.7763672,0.2973633-1.6894531,0.4140625-2.5859375,0.3657227  c-0.5419922-0.0229492-1.0224609,0.3920898-1.0537109,0.9433594C74.5039062,54.1113281,74.9257812,54.5830078,75.4775391,54.6137695  z"/><path d="M15.3364258,49.1733398c0.4897461,0.4594727,0.9414062,0.9643555,1.4199219,1.4985352  c0.2045898,0.2290039,0.409668,0.4575195,0.6171875,0.6826172c0.1972656,0.2133789,0.4658203,0.3217773,0.7348633,0.3217773  c0.2426758,0,0.4858398-0.0878906,0.6782227-0.2651367c0.4057617-0.3745117,0.4311523-1.0073242,0.0566406-1.4130859  c-0.2011719-0.2177734-0.3989258-0.4389648-0.5966797-0.6601562c-0.4858398-0.5424805-0.9882812-1.1035156-1.5410156-1.6225586  c-0.4023438-0.3769531-1.034668-0.3574219-1.4135742,0.0444336C14.9140625,48.1625977,14.934082,48.7954102,15.3364258,49.1733398z"/><path d="M39.6186523,47.9462891c0.7055664,0.347168,1.3647461,0.8549805,2.1367188,1.6474609  c0.1962891,0.2011719,0.4560547,0.3022461,0.7163086,0.3022461c0.2514648,0,0.503418-0.0942383,0.6977539-0.2836914  c0.3955078-0.3857422,0.4038086-1.0185547,0.0185547-1.4140625c-0.9384766-0.9633789-1.7670898-1.5942383-2.6865234-2.046875  c-0.496582-0.2441406-1.0952148-0.0390625-1.3388672,0.4560547C38.9189453,47.1030273,39.1230469,47.7021484,39.6186523,47.9462891z  "/><path d="M51.9296875,54.3803711c0.0874023,0,0.1762695-0.0117188,0.2646484-0.0361328  c1.0869141-0.2978516,2.0810547-0.8364258,3.0395508-1.6464844c0.421875-0.3564453,0.4746094-0.9873047,0.1181641-1.4091797  c-0.3569336-0.421875-0.9868164-0.4746094-1.4091797-0.1181641c-0.7421875,0.6269531-1.465332,1.0224609-2.2768555,1.2451172  c-0.5327148,0.1459961-0.8461914,0.6962891-0.7001953,1.2285156C51.0874023,54.0883789,51.4902344,54.3803711,51.9296875,54.3803711  z"/><path d="M44.6289062,52.5976562c0.953125,0.828125,1.9345703,1.3847656,3.0009766,1.7021484  c0.0952148,0.0283203,0.190918,0.0419922,0.2856445,0.0419922c0.4306641,0,0.8286133-0.28125,0.9580078-0.715332  c0.1577148-0.5292969-0.144043-1.0859375-0.6733398-1.2436523c-0.7983398-0.2373047-1.5161133-0.6489258-2.2597656-1.2949219  c-0.4174805-0.362793-1.0493164-0.3178711-1.4106445,0.0991211C44.1674805,51.6040039,44.2119141,52.2353516,44.6289062,52.5976562z  "/><path d="M24.2700195,52.6225586c-0.9018555,0.0375977-1.8007812-0.1015625-2.5708008-0.4179688  c-0.512207-0.2119141-1.0957031,0.0336914-1.3051758,0.5444336c-0.2099609,0.5112305,0.0336914,1.0952148,0.5444336,1.3051758  c0.9394531,0.3862305,1.9384766,0.5737305,3.0546875,0.5737305c0.1196289,0,0.2373047-0.0024414,0.3530273-0.0063477  c0.5517578-0.0209961,0.9819336-0.4853516,0.9614258-1.0375977C25.2866211,53.0327148,24.8432617,52.6142578,24.2700195,52.6225586z  "/><path d="M35.987793,45.4272461c-1.2001953,0.1337891-2.2724609,0.5131836-3.277832,1.1591797  c-0.4648438,0.2983398-0.5991211,0.9169922-0.3007812,1.3818359c0.190918,0.2973633,0.5131836,0.4594727,0.8422852,0.4594727  c0.1850586,0,0.3720703-0.0512695,0.5395508-0.1586914c0.7407227-0.4755859,1.5317383-0.7553711,2.418457-0.8544922  c0.5493164-0.0610352,0.9443359-0.5556641,0.8828125-1.1044922S36.5341797,45.3652344,35.987793,45.4272461z"/><path d="M84.5820312,47.8579102c-0.3818359-0.3979492-1.0151367-0.4101562-1.4135742-0.027832  c-0.5039062,0.484375-0.9682617,1.0019531-1.4169922,1.5029297c-0.2329102,0.2597656-0.465332,0.519043-0.7026367,0.7729492  c-0.3769531,0.4033203-0.355957,1.0361328,0.0473633,1.4135742c0.1928711,0.1801758,0.4379883,0.2695312,0.6831055,0.2695312  c0.2670898,0,0.5336914-0.1064453,0.7304688-0.3168945c0.2470703-0.2641602,0.4892578-0.5341797,0.730957-0.8041992  c0.4438477-0.4956055,0.8632812-0.9633789,1.3134766-1.3964844C84.9526367,48.8891602,84.9648438,48.2558594,84.5820312,47.8579102z  "/><path d="M89,45.3720703c-0.5878906,0-1.15625,0.0541992-1.6894531,0.1611328  c-0.5415039,0.1088867-0.8920898,0.6357422-0.7836914,1.1772461c0.0952148,0.4750977,0.5126953,0.8032227,0.9794922,0.8032227  c0.0649414,0,0.1313477-0.0063477,0.1977539-0.0195312C88.1079102,47.4130859,88.5439453,47.3720703,89,47.3720703  c0.5522461,0,1-0.4477539,1-1S89.5522461,45.3720703,89,45.3720703z"/><path d="M11,82.7441406c0.4545898,0,0.890625,0.0410156,1.2958984,0.1225586  c0.0664062,0.0131836,0.1328125,0.0195312,0.1977539,0.0195312c0.4667969,0,0.8842773-0.328125,0.9794922-0.8032227  c0.1083984-0.5415039-0.2421875-1.0683594-0.7836914-1.1772461C12.1547852,80.7983398,11.5864258,80.7441406,11,80.7441406  c-0.5522461,0-1,0.4477539-1,1S10.4477539,82.7441406,11,82.7441406z"/><path d="M35.9873047,80.7988281c-1.1992188,0.1337891-2.2714844,0.5131836-3.2768555,1.1591797  c-0.4648438,0.2983398-0.5991211,0.9169922-0.3007812,1.3818359c0.190918,0.2973633,0.5131836,0.4594727,0.8422852,0.4594727  c0.1850586,0,0.3720703-0.0512695,0.5395508-0.1586914c0.7407227-0.4755859,1.5317383-0.7553711,2.4179688-0.8544922  c0.5493164-0.0610352,0.9443359-0.5556641,0.8828125-1.1049805C37.0307617,81.1328125,36.5410156,80.734375,35.9873047,80.7988281z"/><path d="M24.2700195,87.9946289c-0.9091797,0.0371094-1.8007812-0.1020508-2.5703125-0.4179688  c-0.5126953-0.2104492-1.0952148,0.0341797-1.3051758,0.5444336c-0.2099609,0.5112305,0.0336914,1.0952148,0.5444336,1.3051758  C21.878418,89.8125,22.8769531,90,23.9931641,90c0.1196289,0,0.2373047-0.0024414,0.3530273-0.0063477  c0.5517578-0.0209961,0.9819336-0.4853516,0.9614258-1.0375977C25.2866211,88.4042969,24.8432617,87.9716797,24.2700195,87.9946289z  "/><path d="M15.3364258,84.5458984c0.4887695,0.4589844,0.9399414,0.9624023,1.4174805,1.4956055  c0.2055664,0.2299805,0.4116211,0.4594727,0.6206055,0.6860352c0.1967773,0.2133789,0.465332,0.3212891,0.734375,0.3212891  c0.2426758,0,0.4863281-0.0878906,0.6787109-0.265625c0.4052734-0.3745117,0.4306641-1.0073242,0.0556641-1.4130859  c-0.2016602-0.2182617-0.4008789-0.4404297-0.5996094-0.6630859c-0.4848633-0.5415039-0.9863281-1.1010742-1.5380859-1.6191406  c-0.4023438-0.3769531-1.034668-0.3579102-1.4135742,0.0444336C14.9140625,83.5351562,14.934082,84.1679688,15.3364258,84.5458984z"/><path d="M60.6816406,82.0219727c-0.2539062-0.4902344-0.8579102-0.6821289-1.3481445-0.4262695  c-1.1445312,0.5942383-2.0146484,1.4238281-2.6450195,2.0795898c-0.3828125,0.3984375-0.3696289,1.03125,0.0283203,1.4140625  c0.1938477,0.1860352,0.4433594,0.2788086,0.6928711,0.2788086c0.2626953,0,0.5249023-0.1030273,0.7211914-0.3071289  c0.5239258-0.5454102,1.2387695-1.2304688,2.1245117-1.690918C60.7456055,83.1157227,60.9365234,82.512207,60.6816406,82.0219727z"/><path d="M39.6191406,83.3183594c0.7055664,0.347168,1.3647461,0.8549805,2.1367188,1.6474609  c0.1962891,0.2011719,0.4560547,0.3022461,0.7163086,0.3022461c0.2514648,0,0.503418-0.0942383,0.6977539-0.2836914  c0.3955078-0.3857422,0.4038086-1.0185547,0.0185547-1.4140625c-0.9384766-0.9633789-1.7670898-1.5942383-2.6865234-2.046875  c-0.4970703-0.2441406-1.0942383-0.0390625-1.3388672,0.4560547C38.9194336,82.4750977,39.1235352,83.0742188,39.6191406,83.3183594  z"/><path d="M47.9160156,89.7143555c0.4306641,0,0.8286133-0.28125,0.9580078-0.715332  c0.1577148-0.5292969-0.144043-1.0859375-0.6733398-1.2436523c-0.7983398-0.2373047-1.5161133-0.6489258-2.2597656-1.2949219  c-0.4169922-0.362793-1.0498047-0.3183594-1.4106445,0.0991211c-0.3623047,0.4169922-0.3178711,1.0483398,0.0991211,1.4106445  c0.953125,0.828125,1.9345703,1.3847656,3.0009766,1.7021484C47.7255859,89.7006836,47.8212891,89.7143555,47.9160156,89.7143555z"/><path d="M75.4780273,89.9863281C75.6381836,89.9951172,75.8027344,90,75.9677734,90c0.0087891,0,0.0175781,0,0.0263672,0  c1.0541992,0,2.0014648-0.1665039,2.8959961-0.5097656c0.515625-0.1977539,0.7734375-0.7758789,0.5756836-1.2915039  s-0.7768555-0.7744141-1.2915039-0.5756836C77.512207,87.8764648,76.7993164,88,75.9912109,88  c-0.1308594,0.0058594-0.2714844-0.0029297-0.402832-0.0107422c-0.5424805-0.0302734-1.0224609,0.3916016-1.0537109,0.9433594  C74.5043945,89.4838867,74.9262695,89.9555664,75.4780273,89.9863281z"/><path d="M83.168457,83.2021484c-0.5039062,0.484375-0.9682617,1.0019531-1.4169922,1.5029297  c-0.2329102,0.2597656-0.465332,0.519043-0.7026367,0.7729492c-0.3769531,0.4033203-0.355957,1.0361328,0.0473633,1.4135742  c0.1928711,0.1801758,0.4379883,0.2695312,0.6831055,0.2695312c0.2670898,0,0.5336914-0.1064453,0.7304688-0.3168945  c0.2470703-0.2641602,0.4892578-0.5341797,0.730957-0.8041992c0.4438477-0.4956055,0.8632812-0.9633789,1.3134766-1.3964844  c0.3984375-0.3823242,0.4106445-1.015625,0.027832-1.4135742C84.2001953,82.8310547,83.5668945,82.8203125,83.168457,83.2021484z"/><path d="M31.0419922,86.2558594c0.3691406-0.4106445,0.3349609-1.0429688-0.0761719-1.4121094  c-0.4101562-0.3681641-1.0424805-0.3349609-1.4121094,0.0761719c-0.6538086,0.7280273-1.3022461,1.4262695-2.0473633,1.9677734  c-0.4467773,0.3251953-0.5458984,0.9501953-0.2211914,1.3969727c0.1958008,0.2695312,0.5009766,0.4121094,0.8100586,0.4121094  c0.2036133,0,0.409668-0.0620117,0.5869141-0.190918C29.5854492,87.8491211,30.3139648,87.0668945,31.0419922,86.2558594z"/><path d="M66.0869141,83.5761719c0.1630859,0.1000977,0.34375,0.1479492,0.5224609,0.1479492  c0.3359375,0,0.6640625-0.1694336,0.8530273-0.4765625c0.2890625-0.4707031,0.1420898-1.0864258-0.3286133-1.3754883  c-1.0097656-0.6206055-2.0893555-0.9765625-3.2993164-1.0893555c-0.5576172-0.0566406-1.0371094,0.3530273-1.0883789,0.902832  s0.3530273,1.0371094,0.902832,1.0883789C64.546875,82.8574219,65.3442383,83.1201172,66.0869141,83.5761719z"/><path d="M71.1713867,88.409668c0.1806641,0.1357422,0.3920898,0.2016602,0.6015625,0.2016602  c0.3032227,0,0.6025391-0.137207,0.7993164-0.3974609c0.3325195-0.440918,0.2446289-1.0678711-0.1958008-1.4008789  c-0.7167969-0.5405273-1.3237305-1.1972656-2.0429688-1.9990234c-0.3701172-0.4111328-1.0014648-0.4458008-1.4121094-0.0771484  c-0.4111328,0.3686523-0.4458008,1.0009766-0.0771484,1.4121094C69.6098633,87.0024414,70.3129883,87.7617188,71.1713867,88.409668z  "/><path d="M50.9658203,89.0161133c0.121582,0.4443359,0.5244141,0.7363281,0.9638672,0.7363281  c0.0874023,0,0.1762695-0.0117188,0.2646484-0.0361328c1.0869141-0.2978516,2.0810547-0.8364258,3.0395508-1.6464844  c0.421875-0.3564453,0.4746094-0.9873047,0.1181641-1.4091797c-0.3569336-0.4213867-0.9868164-0.4746094-1.4091797-0.1181641  c-0.7421875,0.6269531-1.465332,1.0224609-2.2768555,1.2451172C51.1333008,87.9335938,50.8198242,88.4838867,50.9658203,89.0161133z  "/><path d="M89,80.7441406c-0.5878906,0-1.15625,0.0541992-1.6894531,0.1611328  c-0.5415039,0.1088867-0.8920898,0.6357422-0.7836914,1.1772461c0.0952148,0.4750977,0.5126953,0.8032227,0.9794922,0.8032227  c0.0649414,0,0.1313477-0.0063477,0.1977539-0.0195312C88.1079102,82.7851562,88.5439453,82.7441406,89,82.7441406  c0.5522461,0,1-0.4477539,1-1S89.5522461,80.7441406,89,80.7441406z"/><text x="0" y="115" fill="#000000" font-size="5px" font-weight="bold" font-family="'Helvetica Neue', Helvetica, Arial-Unicode, Arial, Sans-serif">Created by Made by Made</text><text x="0" y="120" fill="#000000" font-size="5px" font-weight="bold" font-family="'Helvetica Neue', Helvetica, Arial-Unicode, Arial, Sans-serif">from the Noun Project</text></svg>