<svg xmlns="http://www.w3.org/2000/svg" data-name="Layer 1" viewBox="0 0 512 640" x="0px" y="0px"><title/><g data-name="Group"><path data-name="Compound Path" d="M313.609,10.608c-101.47,0-184.388,80.9-187.668,181.591a27.994,27.994,0,0,0-22.622,19.947L71.555,320.017,65.2,325.2a52.812,52.812,0,0,0-18.653,49.158L43.818,376.9,24.356,392.762a37.389,37.389,0,0,0-5.344,52.546l34.517,42.335a37.385,37.385,0,0,0,52.547,5.345L136,468.587a58.543,58.543,0,0,0,43.308-12.8l29.22-23.824,40.829,11.6a27.824,27.824,0,0,0,21.289-2.48,27.812,27.812,0,0,0,13.3-16.808l11.08-39.012c6.158.6,12.383.91,18.579.91,103.544,0,187.783-84.238,187.783-187.781S417.153,10.608,313.609,10.608ZM116.768,216.037a14.027,14.027,0,0,1,17.3-9.646L146,209.781l-19.822,65.7L90.76,304.358Zm53.7,228.9a44.519,44.519,0,0,1-34.561,9.523,7,7,0,0,0-6.337,1.309L97.229,482.138A23.375,23.375,0,0,1,64.38,478.8L29.861,436.46A23.375,23.375,0,0,1,33.2,403.612L52.841,387.6c.118-.1.232-.2.344-.3l5.766-5.363a7,7,0,0,0,2.03-6.8,38.724,38.724,0,0,1,13.067-39.093l82.77-67.486a24.49,24.49,0,0,1-3.838,34.01l-4.42,3.605-.008.007L125.01,325.379a7,7,0,0,0,8.847,10.85l27.957-22.794.037-.031,53.769-43.841a8.174,8.174,0,0,1,10.329,12.671l-69.972,57.051a7,7,0,1,0,8.847,10.85L234.8,293.084l17.64-14.383a8.174,8.174,0,0,1,10.329,12.671l-11.756,9.585,0,0-9.259,7.549-66.594,54.3A7,7,0,0,0,184,373.655l58.21-47.46,0,0,12.51-10.2,5.13-4.183a8.173,8.173,0,1,1,10.329,12.669l-20.58,16.78a6.949,6.949,0,0,0-.987.983,22.666,22.666,0,0,0-1.953,1.415l-40.572,33.08a7,7,0,0,0,8.847,10.85l40.573-33.08a8.172,8.172,0,0,1,11.5,1.171,8.184,8.184,0,0,1-1.171,11.5ZM270.483,420.45a14.005,14.005,0,0,1-17.3,9.646l-31.416-8.923,52.918-43.146a22.17,22.17,0,0,0-3.2-36.544l7.547-6.153a22.154,22.154,0,0,0-3.813-36.863,22.162,22.162,0,0,0-31.628-30.615l-1.68,1.369a22.131,22.131,0,0,0-35.137-10.507l-30.809,25.12a38.32,38.32,0,0,0-8.642-24.555,13.462,13.462,0,0,0-18.915-1.922l-2.833,2.31,13.9-46.061L303.087,254.4a14.02,14.02,0,0,1,9.646,17.3L283.341,375.18a6.978,6.978,0,0,0-.3,1.06ZM199.8,198.391a113.811,113.811,0,1,1,115.99,113.783L326.2,275.519a28.035,28.035,0,0,0-19.288-34.59L200.463,210.7A115.343,115.343,0,0,1,199.8,198.391Zm113.81,173.781c-4.894,0-9.8-.228-14.68-.635l12.883-45.362c.6.009,1.2.026,1.8.026A127.811,127.811,0,1,0,185.8,198.391c0,2.738.1,5.482.278,8.219L139.9,193.5c2.6-93.569,79.523-168.887,173.708-168.887,95.825,0,173.783,77.958,173.783,173.783S409.434,372.172,313.609,372.172Z"/></g><text x="0" y="527" fill="#000000" font-size="5px" font-weight="bold" font-family="'Helvetica Neue', Helvetica, Arial-Unicode, Arial, Sans-serif">Created by Kiran Shastry</text><text x="0" y="532" fill="#000000" font-size="5px" font-weight="bold" font-family="'Helvetica Neue', Helvetica, Arial-Unicode, Arial, Sans-serif">from the Noun Project</text></svg>