<svg xmlns="http://www.w3.org/2000/svg" xmlns:xlink="http://www.w3.org/1999/xlink" version="1.1" x="0px" y="0px" viewBox="0 0 100 125" style="enable-background:new 0 0 100 100;" xml:space="preserve"><path d="M83.1308594,76.7324219V40.9726562c0-3.7919922-3.0849609-6.8769531-6.8779297-6.8769531  c-1.9609375,0-3.7280273,0.8287354-4.9820557,2.149292c-0.5499268-3.2457886-3.3736572-5.727417-6.7738037-5.727417  c-1.9212036,0-3.6586914,0.7935181-4.9077148,2.067627c-0.2996216-3.5182495-3.253479-6.2902832-6.847168-6.2902832  c-1.9053345,0-3.6312256,0.7792358-4.8779297,2.0348511V17.1308594c0-3.6484375-2.7255859-6.7666016-6.2060547-7.0986328  c-1.9599609-0.1943359-3.8466797,0.4355469-5.2978516,1.7558594c-1.4306641,1.3007812-2.2519531,3.15625-2.2519531,5.0898438  v34.2597656l-4.7412109-6.7177734c-1.0595703-1.5009766-2.6396484-2.5-4.4501953-2.8125  c-1.8095703-0.3125-3.6337891,0.0986328-5.1347656,1.1572266c-1.5019531,1.0595703-2.5,2.640625-2.8125,4.4501953  c-0.3125,1.8105469,0.0996094,3.6337891,1.1357422,5.1015625l20.4550781,31.6220703  C41.015625,87.734375,45.1796875,90,49.7001953,90h20.1621094C77.1787109,90,83.1308594,84.0478516,83.1308594,76.7324219z   M69.8623047,88H49.7001953c-3.8388672,0-7.3759766-1.9248047-9.4599609-5.1474609L19.7626953,51.1972656  C18.2119141,49,18.7373047,45.9501953,20.9345703,44.3994141c2.2001953-1.5507812,5.2490234-1.0244141,6.7978516,1.1728516  l6.5585938,9.2929688c0.2519531,0.3564453,0.7041016,0.5068359,1.1201172,0.3769531  c0.4150391-0.1318359,0.6972656-0.5175781,0.6972656-0.953125V16.8779297c0-1.3710938,0.5820312-2.6875,1.5976562-3.6103516  c1.0292969-0.9355469,2.3671875-1.3769531,3.7626953-1.2451172c2.4648438,0.2363281,4.3955078,2.4794922,4.3955078,5.1083984  v16.0419922v6.9111328v13.3984375c0,0.5527344,0.4472656,1,1,1s1-0.4472656,1-1V40.0839844v-6.9111328  c0-2.6894531,2.1884766-4.8779297,4.8779297-4.8779297s4.8769531,2.1884766,4.8769531,4.8779297v20.3095703  c0,0.5527344,0.4472656,1,1,1s1-0.4472656,1-1V37.3955078c0-2.6894531,2.1884766-4.8779297,4.8779297-4.8779297  S69.375,34.7060547,69.375,37.3955078v16.0869141c0,0.5527344,0.4472656,1,1,1s1-0.4472656,1-1V40.9726562  c0-2.6894531,2.1884766-4.8769531,4.8779297-4.8769531s4.8779297,2.1875,4.8779297,4.8769531v35.7597656  C81.1308594,82.9453125,76.0761719,88,69.8623047,88z"/><text x="0" y="115" fill="#000000" font-size="5px" font-weight="bold" font-family="'Helvetica Neue', Helvetica, Arial-Unicode, Arial, Sans-serif">Created by Made by Made</text><text x="0" y="120" fill="#000000" font-size="5px" font-weight="bold" font-family="'Helvetica Neue', Helvetica, Arial-Unicode, Arial, Sans-serif">from the Noun Project</text></svg>