<svg xmlns="http://www.w3.org/2000/svg" xmlns:xlink="http://www.w3.org/1999/xlink" version="1.1" x="0px" y="0px" viewBox="-147.3 491 99 123.75" style="enable-background:new -147.3 491 99 99;" xml:space="preserve"><style type="text/css">
	.st0{fill:none;}
	.st1{fill:#231F20;}
	.st2{fill:#FFFFFF;}
</style><path d="M-112.8,542.7c-2.9,2.9-4.6,6.3-3.9,10.5c0.6,3.8,3.6,6.8,7.3,7.4c4.2,0.7,8.4-1.3,11.2-4.4c3.7-4.1,4.7-9.4,3.7-14.7  c-0.6-3.2-5.4-1.8-4.8,1.3c1,5.3-2,13-8.5,12.9c-2.5,0-4.1-1.9-4.1-4.4c0-2.8,2-4.5,3.8-6.3c1.8-1.8,3.5-3.8,3.5-6.5  c-0.1-3.5-2.8-6.7-4.8-9.5c-5-7,4.2-15.1,11.3-14.7c4.5,0.2,8.6,3.1,10.4,7.2c2.2,5.1,0.6,10.7-3.5,14.3c-2.4,2.1,1.1,5.7,3.5,3.5  c8.9-7.9,7.4-22.8-3.5-28.2c-9.9-4.9-22.3,0.9-24.4,11.9c-0.4,2.3-0.5,4.5,0.6,6.7c1,1.9,2.5,3.6,3.7,5.4c0.8,1.3,2.1,2.8,1.4,4.4  C-110.4,540.9-111.9,541.8-112.8,542.7z"/><path d="M-122.7,567.6c0.2,9.3,7.6,17,17,17c7.7,0,14.1-5.2,16.3-12.2c0.1-0.2,0.2-0.5,0.2-0.7c0,0,0,0,0-0.1c0.3-1.3,0.5-2.6,0.6-4  c0-0.1,0-0.1,0-0.1c0.8-5.6,2.2-11,6.2-15.2c2.9-3,6.2-5.4,8.6-8.9c2.7-3.8,4.4-8.2,5.1-12.8c2.5-17-9.7-33-26.8-35  c-10-1.2-20,2.4-26.4,10.3c-2,2.5,1.5,6,3.5,3.5c10.3-12.6,30.6-11.7,40.1,1.5c4.6,6.4,6.1,14.6,4,22.2c-1.1,4-3.3,7.8-6.2,10.8  c-2.3,2.3-4.9,4.2-7,6.8c-4.6,5.7-5.6,13-6.5,20.1c-1.4,5.1-6,9-11.6,9c-6.7,0-11.9-5.5-12-12C-117.7,564.4-122.7,564.4-122.7,567.6  z"/><text x="-147.3" y="605" fill="#000000" font-size="5px" font-weight="bold" font-family="'Helvetica Neue', Helvetica, Arial-Unicode, Arial, Sans-serif">Created by Mrfa Studio</text><text x="-147.3" y="610" fill="#000000" font-size="5px" font-weight="bold" font-family="'Helvetica Neue', Helvetica, Arial-Unicode, Arial, Sans-serif">from the Noun Project</text></svg>