<svg xmlns="http://www.w3.org/2000/svg" xmlns:xlink="http://www.w3.org/1999/xlink" version="1.1" x="0px" y="0px" viewBox="0 0 100 125" style="enable-background:new 0 0 100 100;" xml:space="preserve"><path d="M89,10c-3.6982422,0-5.5839844,2.1040039-7.2475586,3.9604492  c-1.5849609,1.7680664-2.9536133,3.2954102-5.7583008,3.2954102s-4.1733398-1.5273438-5.7583008-3.2954102  C68.5722656,12.1040039,66.6865234,10,62.9882812,10c-3.6962891,0-5.5805664,2.1040039-7.2436523,3.9609375  c-1.5834961,1.7680664-2.9511719,3.2949219-5.753418,3.2949219c-2.8037109,0-4.1713867-1.5268555-5.7558594-3.2949219  C42.5722656,12.1040039,40.6870117,10,36.9897461,10c-3.6958008,0-5.5800781,2.1040039-7.2431641,3.9604492  c-1.5834961,1.7685547-2.9506836,3.2954102-5.753418,3.2954102c-2.8012695,0-4.168457-1.5268555-5.7514648-3.2949219  C16.5791016,12.1044922,14.6953125,10,11,10c-0.5522461,0-1,0.4477539-1,1s0.4477539,1,1,1  c2.8012695,0,4.168457,1.5268555,5.7514648,3.2949219c1.6625977,1.8564453,3.5463867,3.9609375,7.2416992,3.9609375  c3.6962891,0,5.5805664-2.1044922,7.2436523-3.9609375C32.8203125,13.5268555,34.1875,12,36.9897461,12  c2.8037109,0,4.171875,1.5268555,5.7563477,3.2954102c1.6630859,1.8564453,3.5483398,3.9604492,7.2451172,3.9604492  c3.6962891,0,5.5805664-2.1040039,7.2436523-3.9609375C58.8183594,13.5268555,60.1860352,12,62.9882812,12  c2.8046875,0,4.1733398,1.5273438,5.7583008,3.2954102c1.6635742,1.8564453,3.5493164,3.9604492,7.2475586,3.9604492  s5.5839844-2.1040039,7.2475586-3.9604492C84.8266602,13.5273438,86.1953125,12,89,12c0.5522461,0,1-0.4477539,1-1  S89.5522461,10,89,10z"/><path d="M89,45.3720703c-3.6982422,0-5.5839844,2.1040039-7.2475586,3.9604492  c-1.5849609,1.7680664-2.9536133,3.2954102-5.7583008,3.2954102s-4.1733398-1.5273438-5.7583008-3.2954102  c-1.6635742-1.8564453-3.5493164-3.9604492-7.2475586-3.9604492c-3.6962891,0-5.5805664,2.1040039-7.2436523,3.9609375  c-1.5834961,1.7680664-2.9511719,3.2949219-5.753418,3.2949219c-2.8037109,0-4.1713867-1.5268555-5.7558594-3.2949219  c-1.6630859-1.8569336-3.5483398-3.9609375-7.2456055-3.9609375c-3.6958008,0-5.5800781,2.1040039-7.2431641,3.9604492  c-1.5834961,1.7685547-2.9506836,3.2954102-5.753418,3.2954102c-2.8012695,0-4.168457-1.5268555-5.7514648-3.2949219  C16.5791016,47.4765625,14.6953125,45.3720703,11,45.3720703c-0.5522461,0-1,0.4477539-1,1s0.4477539,1,1,1  c2.8012695,0,4.168457,1.5268555,5.7514648,3.2949219c1.6625977,1.8564453,3.5463867,3.9609375,7.2416992,3.9609375  c3.6962891,0,5.5805664-2.1044922,7.2436523-3.9609375c1.5834961-1.7680664,2.9506836-3.2949219,5.7529297-3.2949219  c2.8037109,0,4.171875,1.5268555,5.7563477,3.2954102c1.6630859,1.8564453,3.5483398,3.9604492,7.2451172,3.9604492  c3.6962891,0,5.5805664-2.1040039,7.2436523-3.9609375c1.5834961-1.7680664,2.9511719-3.2949219,5.753418-3.2949219  c2.8046875,0,4.1733398,1.5273438,5.7583008,3.2954102c1.6635742,1.8564453,3.5493164,3.9604492,7.2475586,3.9604492  s5.5839844-2.1040039,7.2475586-3.9604492C84.8266602,48.8994141,86.1953125,47.3720703,89,47.3720703c0.5522461,0,1-0.4477539,1-1  S89.5522461,45.3720703,89,45.3720703z"/><path d="M89,80.7441406c-3.6982422,0-5.5839844,2.1040039-7.2475586,3.9604492C80.1674805,86.4726562,78.7988281,88,75.9941406,88  s-4.1733398-1.5273438-5.7583008-3.2954102c-1.6635742-1.8564453-3.5493164-3.9604492-7.2475586-3.9604492  c-3.6962891,0-5.5805664,2.1040039-7.2436523,3.9609375C54.1611328,86.4731445,52.793457,88,49.9912109,88  c-2.8037109,0-4.1713867-1.5268555-5.7558594-3.2949219c-1.6630859-1.8569336-3.5483398-3.9609375-7.2456055-3.9609375  c-3.6958008,0-5.5800781,2.1040039-7.2431641,3.9604492C28.1630859,86.4731445,26.7958984,88,23.9931641,88  c-2.8012695,0-4.168457-1.5268555-5.7514648-3.2949219C16.5791016,82.8486328,14.6953125,80.7441406,11,80.7441406  c-0.5522461,0-1,0.4477539-1,1s0.4477539,1,1,1c2.8012695,0,4.168457,1.5268555,5.7514648,3.2949219  C18.4140625,87.8955078,20.2978516,90,23.9931641,90c3.6962891,0,5.5805664-2.1044922,7.2436523-3.9609375  c1.5834961-1.7680664,2.9506836-3.2949219,5.7529297-3.2949219c2.8037109,0,4.171875,1.5268555,5.7563477,3.2954102  C44.4091797,87.8959961,46.2944336,90,49.9912109,90c3.6962891,0,5.5805664-2.1040039,7.2436523-3.9609375  c1.5834961-1.7680664,2.9511719-3.2949219,5.753418-3.2949219c2.8046875,0,4.1733398,1.5273438,5.7583008,3.2954102  C70.4101562,87.8959961,72.2958984,90,75.9941406,90s5.5839844-2.1040039,7.2475586-3.9604492  C84.8266602,84.2714844,86.1953125,82.7441406,89,82.7441406c0.5522461,0,1-0.4477539,1-1S89.5522461,80.7441406,89,80.7441406z"/><text x="0" y="115" fill="#000000" font-size="5px" font-weight="bold" font-family="'Helvetica Neue', Helvetica, Arial-Unicode, Arial, Sans-serif">Created by Made by Made</text><text x="0" y="120" fill="#000000" font-size="5px" font-weight="bold" font-family="'Helvetica Neue', Helvetica, Arial-Unicode, Arial, Sans-serif">from the Noun Project</text></svg>